<svg width="80" height="274" viewBox="0 0 80 274" fill="none" xmlns="http://www.w3.org/2000/svg">
<g clip-path="url(#clip0_463_218)">
<path d="M21.8905 86.2992C15.4989 82.7587 10.4058 77.531 6.6019 70.6252C2.79803 63.7194 0.896103 55.4491 0.896103 45.805C0.896103 36.1608 2.79803 27.8905 6.6019 20.9847C10.4058 14.0789 15.5081 8.8512 21.8905 5.31072C28.2821 1.77024 35.2772 0 42.894 0C52.5409 0 60.5509 2.36954 66.9425 7.0994C73.3249 11.8293 77.5769 18.5045 79.6983 27.1252L64.8485 30.9608C62.9832 26.0188 60.3223 22.1741 56.8568 19.445C53.3912 16.7159 48.737 15.3513 42.894 15.3513C38.1575 15.3513 33.8873 16.4854 30.0743 18.7443C26.2704 21.0032 23.2438 24.4146 21.0035 28.9785C18.7633 33.5424 17.6386 39.1481 17.6386 45.805C17.6386 52.4618 18.7633 58.0676 21.0035 62.6315C23.2438 67.1954 26.2704 70.6068 30.0743 72.8657C33.8782 75.1246 38.1484 76.2586 42.894 76.2586C48.7279 76.2586 53.3821 74.8941 56.8568 72.165C60.3223 69.4358 62.9923 65.6003 64.8485 60.6492L79.6983 64.4847C77.586 73.1054 73.3341 79.7715 66.9425 84.5105C60.5509 89.2404 52.5409 91.6099 42.894 91.6099C35.2772 91.6099 28.2821 89.8397 21.8905 86.2992Z" fill="#211F1A"/>
<path d="M0.640072 99.6772H19.1748L40.1143 155.587L61.0538 99.6772H79.5794V189.24H63.0838V133.966L46.0761 181.053H34.1525L17.1448 133.966V189.24H0.640072V99.6772Z" fill="#211F1A"/>
<path d="M8.705 260.834L22.5946 241.813L0 234.087L6.83964 213.397L29.4251 220.921V197.308H50.5658V220.921L73.1512 213.397L79.9909 234.087L57.3963 241.822L71.2859 260.843L53.6656 274.009L39.9863 254.574L26.307 274.009L8.69585 260.843L8.705 260.834Z" fill="#211F1A"/>
</g>
<defs>
<clipPath id="clip0_463_218">
<rect width="80" height="274" fill="white"/>
</clipPath>
</defs>
</svg>
